<svg viewBox="0 94 760 226" xmlns="http://www.w3.org/2000/svg" role="img" aria-labelledby="title desc">
  <title id="title">Anthesis authority gate</title>
  <desc id="desc">Intent, context, policy, approval, execution, and evidence move through a governed authority gate.</desc>
  <g stroke="#1c1b19" fill="#1c1b19" opacity=".45">
    <line x1="126" y1="166" x2="162" y2="166" stroke-width="1.4"/>
    <path d="M162 160l12 6-12 6z"/>
    <line x1="286" y1="166" x2="322" y2="166" stroke-width="1.4"/>
    <path d="M322 160l12 6-12 6z"/>
    <line x1="446" y1="166" x2="478" y2="166" stroke-width="1.4"/>
    <path d="M478 160l12 6-12 6z"/>
    <line x1="602" y1="166" x2="622" y2="166" stroke-width="1.4"/>
    <path d="M622 160l12 6-12 6z"/>
  </g>
  <g font-family="Space Grotesk, Segoe UI, sans-serif" text-anchor="middle">
    <g transform="translate(78 166)">
      <circle r="48" fill="#fff" stroke="#e3dbcf"/>
      <text y="-8" font-size="15" font-weight="700" fill="#1c1b19">Intent</text>
      <text y="13" font-size="11" fill="#4f4a42">request</text>
    </g>
    <g transform="translate(230 166)">
      <rect x="-56" y="-48" width="112" height="96" rx="16" fill="#f7f0e3" stroke="#e3dbcf"/>
      <text y="-18" font-size="14" font-weight="700" fill="#1c1b19">Context</text>
      <text y="3" font-size="11" fill="#4f4a42">repo</text>
      <text y="20" font-size="11" fill="#4f4a42">RFCs</text>
    </g>
    <g transform="translate(390 166)">
      <path d="M0-60l56 32v64L0 68l-56-32v-64z" fill="#f8f2e9" stroke="#e3dbcf"/>
      <text y="-18" font-size="14" font-weight="700" fill="#1c1b19">Policy</text>
      <text y="4" font-size="11" fill="#4f4a42">risk gate</text>
      <text y="22" font-size="11" fill="#4f4a42">allow / deny</text>
    </g>
    <g transform="translate(546 166)">
      <rect x="-56" y="-48" width="112" height="96" rx="16" fill="#fff" stroke="#1b8a7a" stroke-width="1.5"/>
      <text y="-18" font-size="14" font-weight="700" fill="#1c1b19">Approval</text>
      <text y="3" font-size="11" fill="#4f4a42">human or</text>
      <text y="20" font-size="11" fill="#4f4a42">policy grant</text>
    </g>
    <g transform="translate(678 166)">
      <circle r="44" fill="#fff4e6" stroke="#ff7a00" stroke-width="1.5"/>
      <text y="-8" font-size="14" font-weight="700" fill="#1c1b19">Run</text>
      <text y="13" font-size="11" fill="#4f4a42">recorded</text>
    </g>
  </g>
  <g font-family="Space Grotesk, Segoe UI, sans-serif">
    <rect x="284" y="258" width="212" height="38" rx="19" fill="#1c1b19"/>
    <text x="390" y="282" text-anchor="middle" font-size="13" font-weight="700" fill="#fbf6ee">evidence emitted for replay</text>
    <g stroke="#1c1b19" fill="#1c1b19" opacity=".45">
      <line x1="390" y1="234" x2="390" y2="246" stroke-width="1.2"/>
      <path d="M384 246l6 12 6-12z"/>
    </g>
  </g>
</svg>
