<svg viewBox="289 129 380 380" xmlns="http://www.w3.org/2000/svg" preserveAspectRatio="xMidYMid meet">

  <g font-family="Space Grotesk, Segoe UI, sans-serif" font-size="14" fill="#1c1b19">
    <g transform="translate(480 185)">
      <circle cx="0" cy="0" r="46" fill="#fbf6ee" stroke="#e3dbcf"/>
      <text x="0" y="-6" text-anchor="middle" font-weight="700">Analysis</text>
      <text x="0" y="14" text-anchor="middle" font-size="12" fill="#4f4a42">Specs agent</text>
    </g>

    <g transform="translate(597 252.5)">
      <circle cx="0" cy="0" r="46" fill="#fbf6ee" stroke="#e3dbcf"/>
      <text x="0" y="-6" text-anchor="middle" font-weight="700">Design</text>
      <text x="0" y="14" text-anchor="middle" font-size="12" fill="#4f4a42">Design agent</text>
    </g>

    <g transform="translate(597 387.5)">
      <circle cx="0" cy="0" r="46" fill="#fbf6ee" stroke="#e3dbcf"/>
      <text x="0" y="-6" text-anchor="middle" font-weight="700">Build</text>
      <text x="0" y="14" text-anchor="middle" font-size="12" fill="#4f4a42">Build agent</text>
    </g>

    <g transform="translate(480 455)">
      <circle cx="0" cy="0" r="46" fill="#fbf6ee" stroke="#e3dbcf"/>
      <text x="0" y="-6" text-anchor="middle" font-weight="700">Testing</text>
      <text x="0" y="14" text-anchor="middle" font-size="12" fill="#4f4a42">Test agent</text>
    </g>

    <g transform="translate(363 387.5)">
      <circle cx="0" cy="0" r="46" fill="#fbf6ee" stroke="#e3dbcf"/>
      <text x="0" y="-6" text-anchor="middle" font-weight="700">Control</text>
      <text x="0" y="14" text-anchor="middle" font-size="12" fill="#4f4a42">Ops agents</text>
    </g>

    <g transform="translate(363 252.5)">
      <circle cx="0" cy="0" r="46" fill="#fbf6ee" stroke="#e3dbcf"/>
      <text x="0" y="-6" text-anchor="middle" font-weight="700">Release</text>
      <text x="0" y="14" text-anchor="middle" font-size="12" fill="#4f4a42">CI/CD agent</text>
    </g>
  </g>

  <g stroke="#1c1b19" stroke-width="1" opacity="0.35">
    <line x1="519.85" y1="207.99" x2="557.15" y2="229.51"/>
    <line x1="597" y1="298.5" x2="597" y2="341.5"/>
    <line x1="557.15" y1="410.49" x2="519.85" y2="432.01"/>
    <line x1="440.15" y1="432.01" x2="402.85" y2="410.49"/>
    <line x1="363" y1="341.5" x2="363" y2="298.5"/>
    <line x1="402.85" y1="229.51" x2="440.15" y2="207.99"/>
  </g>


</svg>
